<svg width="352" height="90" viewBox="0 0 352 90" fill="none" xmlns="http://www.w3.org/2000/svg">
<path d="M141 40H163V50H141V40Z" fill="#EC6BC8" fill-opacity="0.44"/>
<path d="M250 40H272V50H250V40Z" fill="#56C2FF"/>
<path d="M88.8 68C87.2213 68 86.432 67.2107 86.432 65.632V27.68C86.432 26.1013 87.2213 25.312 88.8 25.312C89.8453 25.312 90.7093 25.824 91.392 26.848L106.784 50.112L105.76 50.272L121.216 26.848C121.856 25.824 122.805 25.312 124.064 25.312C125.365 25.312 126.016 26.1013 126.016 27.68V65.632C126.016 67.2107 125.237 68 123.68 68C122.101 68 121.312 67.2107 121.312 65.632V32.384L122.752 32.864L108.864 53.568C108.181 54.5707 107.232 55.072 106.016 55.072C105.12 55.072 104.331 54.5707 103.648 53.568L89.76 32.864L91.136 33.28V65.632C91.136 67.2107 90.3573 68 88.8 68ZM142.262 54.048V55.84C142.262 58.6773 142.795 60.6293 143.862 61.696C144.928 62.7627 146.902 63.296 149.782 63.296H155.03C157.376 63.296 159.094 63.0507 160.182 62.56C161.291 62.048 162.006 61.1627 162.326 59.904C162.496 59.2 162.763 58.656 163.126 58.272C163.51 57.888 164.075 57.696 164.822 57.696C165.611 57.696 166.208 57.9093 166.614 58.336C167.019 58.7413 167.158 59.3387 167.03 60.128C166.624 62.7947 165.419 64.7787 163.414 66.08C161.43 67.36 158.635 68 155.03 68H149.782C145.622 68 142.539 67.008 140.534 65.024C138.55 63.04 137.558 59.9787 137.558 55.84V48.48C137.558 44.256 138.55 41.1627 140.534 39.2C142.539 37.216 145.622 36.2453 149.782 36.288H155.03C159.19 36.288 162.262 37.28 164.246 39.264C166.23 41.2267 167.222 44.2987 167.222 48.48V51.68C167.222 53.2587 166.443 54.048 164.886 54.048H142.262ZM149.782 40.992C146.902 40.9493 144.928 41.4613 143.862 42.528C142.795 43.5947 142.262 45.5787 142.262 48.48V49.344H162.518V48.48C162.518 45.6 161.984 43.6373 160.918 42.592C159.872 41.5253 157.91 40.992 155.03 40.992H149.782ZM184.663 68C183.383 68 182.54 67.36 182.135 66.08L173.174 39.392C172.684 37.9413 173.185 36.96 174.679 36.448C176.151 35.9573 177.143 36.4587 177.655 37.952L185.399 60.896H184.663L191.991 38.112C192.417 36.8747 193.313 36.256 194.679 36.256C196.001 36.256 196.844 36.9067 197.207 38.208L204.087 60.704H203.447L211.447 37.92C212.001 36.4053 213.004 35.9147 214.455 36.448C215.948 36.9813 216.417 37.9947 215.863 39.488L206.103 66.08C205.633 67.36 204.737 68 203.415 68C202.049 68 201.175 67.3493 200.791 66.048L193.975 43.616H194.647L187.191 66.08C186.999 66.7413 186.679 67.232 186.231 67.552C185.783 67.8507 185.26 68 184.663 68ZM237.743 68C233.625 68 230.596 67.0293 228.655 65.088C226.713 63.1467 225.743 60.128 225.743 56.032V40.992H222.383C220.804 40.992 220.015 40.2027 220.015 38.624C220.015 37.0667 220.804 36.288 222.383 36.288H225.743V30.88C225.743 29.3013 226.521 28.512 228.079 28.512C229.657 28.512 230.447 29.3013 230.447 30.88V36.288H238.031C239.588 36.288 240.367 37.0667 240.367 38.624C240.367 40.2027 239.588 40.992 238.031 40.992H230.447V56.032C230.447 58.848 230.959 60.768 231.983 61.792C233.028 62.7947 234.948 63.296 237.743 63.296C238.511 63.296 239.097 63.488 239.503 63.872C239.908 64.2347 240.111 64.8213 240.111 65.632C240.111 67.2107 239.321 68 237.743 68ZM250.887 54.048V55.84C250.887 58.6773 251.42 60.6293 252.487 61.696C253.553 62.7627 255.527 63.296 258.407 63.296H263.655C266.001 63.296 267.719 63.0507 268.807 62.56C269.916 62.048 270.631 61.1627 270.951 59.904C271.121 59.2 271.388 58.656 271.751 58.272C272.135 57.888 272.7 57.696 273.447 57.696C274.236 57.696 274.833 57.9093 275.239 58.336C275.644 58.7413 275.783 59.3387 275.655 60.128C275.249 62.7947 274.044 64.7787 272.039 66.08C270.055 67.36 267.26 68 263.655 68H258.407C254.247 68 251.164 67.008 249.159 65.024C247.175 63.04 246.183 59.9787 246.183 55.84V48.48C246.183 44.256 247.175 41.1627 249.159 39.2C251.164 37.216 254.247 36.2453 258.407 36.288H263.655C267.815 36.288 270.887 37.28 272.871 39.264C274.855 41.2267 275.847 44.2987 275.847 48.48V51.68C275.847 53.2587 275.068 54.048 273.511 54.048H250.887ZM258.407 40.992C255.527 40.9493 253.553 41.4613 252.487 42.528C251.42 43.5947 250.887 45.5787 250.887 48.48V49.344H271.143V48.48C271.143 45.6 270.609 43.6373 269.543 42.592C268.497 41.5253 266.535 40.992 263.655 40.992H258.407ZM283.384 67.424C282.147 66.464 281.987 65.3547 282.904 64.096L292.568 50.976L284.248 40.16C283.245 38.944 283.384 37.856 284.664 36.896C285.88 35.9147 286.968 36.0427 287.928 37.28L295.864 47.584L303.864 37.28C304.803 36 305.901 35.8613 307.16 36.864C308.397 37.8027 308.547 38.9013 307.608 40.16L298.808 51.424L308.568 64.064C309.485 65.3227 309.357 66.4213 308.184 67.36C306.904 68.3627 305.795 68.224 304.856 66.944L295.544 54.88L286.68 66.88C285.72 68.1813 284.621 68.3627 283.384 67.424ZM331.993 68C327.875 68 324.846 67.0293 322.905 65.088C320.963 63.1467 319.993 60.128 319.993 56.032V40.992H316.633C315.054 40.992 314.265 40.2027 314.265 38.624C314.265 37.0667 315.054 36.288 316.633 36.288H319.993V30.88C319.993 29.3013 320.771 28.512 322.329 28.512C323.907 28.512 324.697 29.3013 324.697 30.88V36.288H332.281C333.838 36.288 334.617 37.0667 334.617 38.624C334.617 40.2027 333.838 40.992 332.281 40.992H324.697V56.032C324.697 58.848 325.209 60.768 326.233 61.792C327.278 62.7947 329.198 63.296 331.993 63.296C332.761 63.296 333.347 63.488 333.753 63.872C334.158 64.2347 334.361 64.8213 334.361 65.632C334.361 67.2107 333.571 68 331.993 68Z" fill="black"/>
<path d="M23.0512 65.4534L27.3641 19.383C27.4078 18.9165 28.0116 18.7609 28.2753 19.1483L35.9235 30.3837C36.0166 30.5205 36.1714 30.6023 36.3368 30.6023H55.4091C55.5786 30.6023 55.7365 30.5165 55.8287 30.3743L63.1318 19.1095C63.3823 18.723 63.978 18.8522 64.0458 19.3078L70.9146 65.4263C70.9596 65.7285 70.7255 66 70.42 66H23.549C23.2544 66 23.0237 65.7467 23.0512 65.4534Z" fill="#FFE756" stroke="black" stroke-width="5"/>
</svg>
